<svg xmlns="http://www.w3.org/2000/svg" xmlns:xlink="http://www.w3.org/1999/xlink" width="500" zoomAndPan="magnify" viewBox="0 0 375 374.999991" height="500" preserveAspectRatio="xMidYMid meet" version="1.0"><defs><g/></defs><g fill="#16896d" fill-opacity="0.7686"><g transform="translate(55.422106, 238.849665)"><g><path d="M 10.96875 -71.863281 C 9.035156 -71.160156 6.703125 -69.839844 5.429688 -67.96875 C 4.460938 -70.195312 1.628906 -70.886719 -0.855469 -69.980469 C -3.339844 -69.074219 -5.390625 -66.765625 -5.378906 -62.859375 L -4.617188 -6.449219 C -4.589844 -5.523438 -4.523438 -4.6875 -4.269531 -3.996094 C -3.164062 -0.957031 0.0703125 -0.0234375 2.832031 -1.03125 C 5.109375 -1.859375 7.023438 -4.121094 6.945312 -7.769531 L 6.617188 -23.050781 C 9.863281 -21.652344 13.910156 -21.484375 17.777344 -22.894531 C 24.542969 -25.359375 30.351562 -32.164062 30.265625 -42.0625 L 30.136719 -59.375 C 30.132812 -61.328125 29.824219 -63.246094 29.269531 -64.765625 C 26.378906 -72.707031 18.5625 -74.628906 10.96875 -71.863281 Z M 18.804688 -54.855469 L 19.09375 -40.964844 C 19.175781 -37.085938 17.207031 -34.335938 14.515625 -33.355469 C 11.476562 -32.25 8.164062 -33.621094 7.03125 -36.730469 C 6.832031 -37.28125 6.75 -37.722656 6.753906 -38.347656 L 6.414062 -54.097656 C 6.34375 -58.371094 8.695312 -60.714844 11.457031 -61.71875 C 14.21875 -62.726562 16.945312 -61.683594 18.148438 -58.371094 C 18.476562 -57.472656 18.742188 -56.320312 18.804688 -54.855469 Z M 18.804688 -54.855469 "/></g></g></g><g fill="#16896d" fill-opacity="0.7686"><g transform="translate(95.391859, 224.293726)"><g><path d="M 5.359375 -14.695312 L 4.570312 -61.949219 C 4.546875 -62.878906 4.382812 -63.757812 4.132812 -64.445312 C 3.175781 -67.070312 0.0625 -67.890625 -2.007812 -67.136719 C -4.632812 -66.179688 -5.832031 -64.101562 -5.804688 -60.59375 L -5.230469 -14.359375 C -5.203125 -12.570312 -4.953125 -11.019531 -4.421875 -9.570312 C -2.109375 -3.21875 4.417969 -1.609375 10.492188 -3.820312 C 17.050781 -6.210938 23.78125 -13.273438 23.386719 -29.394531 C 23.347656 -29.925781 23.242188 -30.433594 23.089844 -30.847656 C 22.285156 -33.058594 19.773438 -33.941406 17.636719 -33.164062 C 15.910156 -32.535156 14.421875 -30.820312 14.386719 -27.914062 C 14.296875 -18.5 11.574219 -13.519531 8.328125 -12.339844 C 6.949219 -11.835938 5.886719 -12.386719 5.511719 -13.421875 C 5.410156 -13.699219 5.371094 -14.230469 5.359375 -14.695312 Z M 5.359375 -14.695312 "/></g></g></g><g fill="#16896d" fill-opacity="0.7686"><g transform="translate(114.651895, 217.279724)"><g><path d="M 34.785156 -39.097656 C 32.855469 -38.394531 31.140625 -36.441406 31.269531 -33.515625 C 31.667969 -24.042969 28.351562 -19.628906 25.242188 -18.496094 C 24.070312 -18.070312 23.152344 -18.441406 22.75 -19.542969 C 22.550781 -20.097656 22.4375 -20.835938 22.367188 -21.671875 L 21.953125 -46.855469 C 21.925781 -47.785156 21.789062 -48.59375 21.539062 -49.285156 C 20.429688 -52.320312 17.367188 -53.003906 14.8125 -52.074219 C 12.882812 -51.371094 11.207031 -49.742188 10.730469 -47.617188 C 8.953125 -47.984375 5.882812 -48.039062 2.363281 -46.757812 C -2.191406 -45.097656 -6.257812 -40.804688 -6.1875 -34.808594 L -5.914062 -13.875 C -5.875 -12.480469 -5.699219 -11.140625 -5.246094 -9.894531 C -3.160156 -4.167969 3.175781 -1.15625 9.25 -3.367188 C 12.496094 -4.550781 15.28125 -7.207031 17.003906 -10.414062 C 20.371094 -8.042969 25.472656 -9.277344 27.542969 -10.03125 C 33.273438 -12.117188 39.882812 -17.808594 40.226562 -30.601562 C 40.210938 -33.644531 40.34375 -35.648438 39.890625 -36.890625 C 39.035156 -39.238281 36.789062 -39.824219 34.785156 -39.097656 Z M 11.753906 -31.492188 L 12.1875 -19.996094 C 12.371094 -14.984375 10.125 -12.992188 8.675781 -12.464844 C 7.15625 -11.910156 6.046875 -12.601562 5.464844 -14.1875 C 5.140625 -15.085938 5.046875 -15.988281 5.027344 -16.6875 L 4.390625 -32.171875 C 4.167969 -36.859375 5.902344 -38.117188 7.003906 -38.519531 C 8.316406 -38.996094 10.246094 -38.210938 11.097656 -35.863281 C 11.476562 -34.828125 11.679688 -33.417969 11.753906 -31.492188 Z M 11.753906 -31.492188 "/></g></g></g><g fill="#16896d" fill-opacity="0.7686"><g transform="translate(150.893905, 204.081331)"><g><path d="M 31.28125 -33.910156 C 31.261719 -24.519531 28.695312 -19.753906 25.449219 -18.574219 C 24.207031 -18.121094 23.292969 -18.492188 22.863281 -19.664062 C 22.6875 -20.148438 22.625 -20.75 22.582031 -21.515625 L 22.382812 -38.800781 C 22.363281 -40.359375 22.1875 -41.703125 21.761719 -42.875 C 19.75 -48.398438 13.546875 -50.832031 8.023438 -48.820312 C 5.332031 -47.839844 3.417969 -46.4375 2.101562 -44.472656 C 1.234375 -45.566406 -0.742188 -45.625 -2.605469 -44.949219 C -4.539062 -44.242188 -6.078125 -42.667969 -6.0625 -40.484375 L -5.851562 -4.046875 C -5.832031 -3.347656 -5.699219 -2.773438 -5.5 -2.21875 C -4.570312 0.335938 -2.089844 0.917969 0.121094 0.113281 C 2.535156 -0.765625 4.742188 -3.292969 4.648438 -6.773438 C 4.625 -14.351562 4.496094 -25.015625 4.429688 -32.496094 C 5.035156 -36.628906 6.847656 -39.164062 8.78125 -39.867188 C 10.023438 -40.320312 11.222656 -39.820312 11.699219 -38.507812 C 11.875 -38.023438 11.964844 -37.351562 11.984375 -36.65625 L 12.125 -20.601562 C 12.148438 -18.8125 12.355469 -17.167969 12.886719 -15.71875 C 15.199219 -9.367188 21.675781 -7.894531 27.542969 -10.03125 C 34.585938 -12.59375 40.375 -20.097656 40.238281 -35.296875 C 40.242188 -35.921875 40.179688 -36.527344 40.003906 -37.007812 C 39.199219 -39.21875 36.769531 -39.664062 34.699219 -38.90625 C 32.835938 -38.230469 31.140625 -36.441406 31.28125 -33.910156 Z M 31.28125 -33.910156 "/></g></g></g><g fill="#16896d" fill-opacity="0.7686"><g transform="translate(187.135914, 190.882938)"><g><path d="M 17.554688 -28.441406 C 17.558594 -19.84375 14.542969 -14.601562 10.539062 -13.140625 C 8.054688 -12.238281 5.980469 -13.203125 5.304688 -15.066406 C 5.128906 -15.550781 5.0625 -16.152344 5.027344 -16.6875 L 4.777344 -38.410156 L 9.265625 -40.042969 C 12.785156 -41.328125 13.742188 -44.492188 12.914062 -46.769531 C 12.261719 -48.5625 10.507812 -49.722656 7.886719 -48.769531 L 4.777344 -47.636719 L 4.503906 -62.785156 C 4.464844 -63.316406 4.382812 -63.757812 4.230469 -64.171875 C 3.300781 -66.726562 0.753906 -68.140625 -2.285156 -67.035156 C -4.5625 -66.207031 -5.917969 -63.914062 -5.867188 -61.195312 L -5.78125 -43.792969 L -8.683594 -42.734375 C -12.410156 -41.378906 -13.144531 -38.453125 -12.339844 -36.242188 C -11.636719 -34.308594 -9.859375 -33.082031 -7.992188 -33.757812 L -5.714844 -34.589844 L -5.457031 -15.839844 L -5.480469 -15.910156 C -5.429688 -14.050781 -5.152344 -12.433594 -4.625 -10.980469 C -2.0625 -3.941406 5.730469 -2.085938 12.839844 -4.675781 C 21.675781 -7.894531 26.675781 -17.140625 26.488281 -29.898438 C 26.449219 -30.429688 26.410156 -30.964844 26.261719 -31.378906 C 25.507812 -33.449219 23.027344 -34.03125 20.886719 -33.253906 C 19.160156 -32.625 17.578125 -30.953125 17.554688 -28.441406 Z M 17.554688 -28.441406 "/></g></g></g><g fill="#6a9278" fill-opacity="1"><g transform="translate(53.007354, 237.341359)"><g><path d="M 10.96875 -71.863281 C 9.035156 -71.160156 6.703125 -69.839844 5.429688 -67.96875 C 4.460938 -70.195312 1.628906 -70.886719 -0.855469 -69.980469 C -3.339844 -69.074219 -5.390625 -66.765625 -5.378906 -62.859375 L -4.617188 -6.449219 C -4.589844 -5.523438 -4.523438 -4.6875 -4.269531 -3.996094 C -3.164062 -0.957031 0.0703125 -0.0234375 2.832031 -1.03125 C 5.109375 -1.859375 7.023438 -4.121094 6.945312 -7.769531 L 6.617188 -23.050781 C 9.863281 -21.652344 13.910156 -21.484375 17.777344 -22.894531 C 24.542969 -25.359375 30.351562 -32.164062 30.265625 -42.0625 L 30.136719 -59.375 C 30.132812 -61.328125 29.824219 -63.246094 29.269531 -64.765625 C 26.378906 -72.707031 18.5625 -74.628906 10.96875 -71.863281 Z M 18.804688 -54.855469 L 19.09375 -40.964844 C 19.175781 -37.085938 17.207031 -34.335938 14.515625 -33.355469 C 11.476562 -32.25 8.164062 -33.621094 7.03125 -36.730469 C 6.832031 -37.28125 6.75 -37.722656 6.753906 -38.347656 L 6.414062 -54.097656 C 6.34375 -58.371094 8.695312 -60.714844 11.457031 -61.71875 C 14.21875 -62.726562 16.945312 -61.683594 18.148438 -58.371094 C 18.476562 -57.472656 18.742188 -56.320312 18.804688 -54.855469 Z M 18.804688 -54.855469 "/></g></g></g><g fill="#6a9278" fill-opacity="1"><g transform="translate(92.977106, 222.78542)"><g><path d="M 5.359375 -14.695312 L 4.570312 -61.949219 C 4.546875 -62.878906 4.382812 -63.757812 4.132812 -64.445312 C 3.175781 -67.070312 0.0625 -67.890625 -2.007812 -67.136719 C -4.632812 -66.179688 -5.832031 -64.101562 -5.804688 -60.59375 L -5.230469 -14.359375 C -5.203125 -12.570312 -4.953125 -11.019531 -4.421875 -9.570312 C -2.109375 -3.21875 4.417969 -1.609375 10.492188 -3.820312 C 17.050781 -6.210938 23.78125 -13.273438 23.386719 -29.394531 C 23.347656 -29.925781 23.242188 -30.433594 23.089844 -30.847656 C 22.285156 -33.058594 19.773438 -33.941406 17.636719 -33.164062 C 15.910156 -32.535156 14.421875 -30.820312 14.386719 -27.914062 C 14.296875 -18.5 11.574219 -13.519531 8.328125 -12.339844 C 6.949219 -11.835938 5.886719 -12.386719 5.511719 -13.421875 C 5.410156 -13.699219 5.371094 -14.230469 5.359375 -14.695312 Z M 5.359375 -14.695312 "/></g></g></g><g fill="#6a9278" fill-opacity="1"><g transform="translate(112.237143, 215.771418)"><g><path d="M 34.785156 -39.097656 C 32.855469 -38.394531 31.140625 -36.441406 31.269531 -33.515625 C 31.667969 -24.042969 28.351562 -19.628906 25.242188 -18.496094 C 24.070312 -18.070312 23.152344 -18.441406 22.75 -19.542969 C 22.550781 -20.097656 22.4375 -20.835938 22.367188 -21.671875 L 21.953125 -46.855469 C 21.925781 -47.785156 21.789062 -48.59375 21.539062 -49.285156 C 20.429688 -52.320312 17.367188 -53.003906 14.8125 -52.074219 C 12.882812 -51.371094 11.207031 -49.742188 10.730469 -47.617188 C 8.953125 -47.984375 5.882812 -48.039062 2.363281 -46.757812 C -2.191406 -45.097656 -6.257812 -40.804688 -6.1875 -34.808594 L -5.914062 -13.875 C -5.875 -12.480469 -5.699219 -11.140625 -5.246094 -9.894531 C -3.160156 -4.167969 3.175781 -1.15625 9.25 -3.367188 C 12.496094 -4.550781 15.28125 -7.207031 17.003906 -10.414062 C 20.371094 -8.042969 25.472656 -9.277344 27.542969 -10.03125 C 33.273438 -12.117188 39.882812 -17.808594 40.226562 -30.601562 C 40.210938 -33.644531 40.34375 -35.648438 39.890625 -36.890625 C 39.035156 -39.238281 36.789062 -39.824219 34.785156 -39.097656 Z M 11.753906 -31.492188 L 12.1875 -19.996094 C 12.371094 -14.984375 10.125 -12.992188 8.675781 -12.464844 C 7.15625 -11.910156 6.046875 -12.601562 5.464844 -14.1875 C 5.140625 -15.085938 5.046875 -15.988281 5.027344 -16.6875 L 4.390625 -32.171875 C 4.167969 -36.859375 5.902344 -38.117188 7.003906 -38.519531 C 8.316406 -38.996094 10.246094 -38.210938 11.097656 -35.863281 C 11.476562 -34.828125 11.679688 -33.417969 11.753906 -31.492188 Z M 11.753906 -31.492188 "/></g></g></g><g fill="#6a9278" fill-opacity="1"><g transform="translate(148.479152, 202.573025)"><g><path d="M 31.28125 -33.910156 C 31.261719 -24.519531 28.695312 -19.753906 25.449219 -18.574219 C 24.207031 -18.121094 23.292969 -18.492188 22.863281 -19.664062 C 22.6875 -20.148438 22.625 -20.75 22.582031 -21.515625 L 22.382812 -38.800781 C 22.363281 -40.359375 22.1875 -41.703125 21.761719 -42.875 C 19.75 -48.398438 13.546875 -50.832031 8.023438 -48.820312 C 5.332031 -47.839844 3.417969 -46.4375 2.101562 -44.472656 C 1.234375 -45.566406 -0.742188 -45.625 -2.605469 -44.949219 C -4.539062 -44.242188 -6.078125 -42.667969 -6.0625 -40.484375 L -5.851562 -4.046875 C -5.832031 -3.347656 -5.699219 -2.773438 -5.5 -2.21875 C -4.570312 0.335938 -2.089844 0.917969 0.121094 0.113281 C 2.535156 -0.765625 4.742188 -3.292969 4.648438 -6.773438 C 4.625 -14.351562 4.496094 -25.015625 4.429688 -32.496094 C 5.035156 -36.628906 6.847656 -39.164062 8.78125 -39.867188 C 10.023438 -40.320312 11.222656 -39.820312 11.699219 -38.507812 C 11.875 -38.023438 11.964844 -37.351562 11.984375 -36.65625 L 12.125 -20.601562 C 12.148438 -18.8125 12.355469 -17.167969 12.886719 -15.71875 C 15.199219 -9.367188 21.675781 -7.894531 27.542969 -10.03125 C 34.585938 -12.59375 40.375 -20.097656 40.238281 -35.296875 C 40.242188 -35.921875 40.179688 -36.527344 40.003906 -37.007812 C 39.199219 -39.21875 36.769531 -39.664062 34.699219 -38.90625 C 32.835938 -38.230469 31.140625 -36.441406 31.28125 -33.910156 Z M 31.28125 -33.910156 "/></g></g></g><g fill="#6a9278" fill-opacity="1"><g transform="translate(184.721161, 189.374632)"><g><path d="M 17.554688 -28.441406 C 17.558594 -19.84375 14.542969 -14.601562 10.539062 -13.140625 C 8.054688 -12.238281 5.980469 -13.203125 5.304688 -15.066406 C 5.128906 -15.550781 5.0625 -16.152344 5.027344 -16.6875 L 4.777344 -38.410156 L 9.265625 -40.042969 C 12.785156 -41.328125 13.742188 -44.492188 12.914062 -46.769531 C 12.261719 -48.5625 10.507812 -49.722656 7.886719 -48.769531 L 4.777344 -47.636719 L 4.503906 -62.785156 C 4.464844 -63.316406 4.382812 -63.757812 4.230469 -64.171875 C 3.300781 -66.726562 0.753906 -68.140625 -2.285156 -67.035156 C -4.5625 -66.207031 -5.917969 -63.914062 -5.867188 -61.195312 L -5.78125 -43.792969 L -8.683594 -42.734375 C -12.410156 -41.378906 -13.144531 -38.453125 -12.339844 -36.242188 C -11.636719 -34.308594 -9.859375 -33.082031 -7.992188 -33.757812 L -5.714844 -34.589844 L -5.457031 -15.839844 L -5.480469 -15.910156 C -5.429688 -14.050781 -5.152344 -12.433594 -4.625 -10.980469 C -2.0625 -3.941406 5.730469 -2.085938 12.839844 -4.675781 C 21.675781 -7.894531 26.675781 -17.140625 26.488281 -29.898438 C 26.449219 -30.429688 26.410156 -30.964844 26.261719 -31.378906 C 25.507812 -33.449219 23.027344 -34.03125 20.886719 -33.253906 C 19.160156 -32.625 17.578125 -30.953125 17.554688 -28.441406 Z M 17.554688 -28.441406 "/></g></g></g><g fill="#000000" fill-opacity="1"><g transform="translate(117.713126, 209.999986)"><g><path d="M 5.167969 -3.429688 L 5.167969 -13.441406 L 6.285156 -13.441406 C 9.167969 -13.441406 11.105469 -11.257812 11.105469 -8.449219 C 11.105469 -5.640625 9.144531 -3.429688 6.285156 -3.429688 Z M 1.492188 -16.894531 L 1.492188 0 L 6.511719 0 C 11.304688 0 14.910156 -3.675781 14.910156 -8.449219 C 14.910156 -13.21875 11.28125 -16.894531 6.511719 -16.894531 Z M 1.492188 -16.894531 "/></g></g></g><g fill="#000000" fill-opacity="1"><g transform="translate(138.459483, 209.999986)"><g><path d="M 5.21875 0 L 5.21875 -16.894531 L 1.492188 -16.894531 L 1.492188 0 Z M 5.21875 0 "/></g></g></g><g fill="#000000" fill-opacity="1"><g transform="translate(150.137886, 209.999986)"><g><path d="M 13.691406 -5.738281 C 12.996094 -4.25 11.304688 -3.230469 9.566406 -3.230469 C 6.832031 -3.230469 4.644531 -5.566406 4.644531 -8.449219 C 4.644531 -11.304688 6.832031 -13.667969 9.566406 -13.667969 C 11.28125 -13.667969 12.96875 -12.722656 13.667969 -11.207031 L 17.816406 -11.207031 C 16.671875 -14.660156 13.417969 -17.144531 9.566406 -17.144531 C 4.769531 -17.144531 0.871094 -13.242188 0.871094 -8.449219 C 0.871094 -3.652344 4.769531 0.25 9.566406 0.25 C 13.417969 0.25 16.699219 -2.261719 17.839844 -5.738281 Z M 13.691406 -5.738281 "/></g></g></g><g fill="#000000" fill-opacity="1"><g transform="translate(173.567357, 209.999986)"><g><path d="M 8.671875 -13.515625 L 13.492188 -13.515625 L 13.492188 -16.894531 L 0.125 -16.894531 L 0.125 -13.515625 L 4.945312 -13.515625 L 4.945312 0 L 8.671875 0 Z M 8.671875 -13.515625 "/></g></g></g><g fill="#000000" fill-opacity="1"><g transform="translate(192.152314, 209.999986)"><g><path d="M 5.21875 0 L 5.21875 -16.894531 L 1.492188 -16.894531 L 1.492188 0 Z M 5.21875 0 "/></g></g></g><g fill="#000000" fill-opacity="1"><g transform="translate(203.830717, 209.999986)"><g><path d="M 14.535156 -8.472656 C 14.535156 -5.863281 12.175781 -3.480469 9.566406 -3.480469 C 6.957031 -3.480469 4.597656 -5.863281 4.597656 -8.472656 C 4.597656 -11.082031 6.957031 -13.441406 9.566406 -13.441406 C 12.175781 -13.441406 14.535156 -11.082031 14.535156 -8.472656 Z M 18.261719 -8.449219 C 18.261719 -13.121094 14.238281 -17.144531 9.566406 -17.144531 C 4.894531 -17.144531 0.871094 -13.121094 0.871094 -8.449219 C 0.871094 -3.777344 4.894531 0.25 9.566406 0.25 C 14.238281 0.25 18.261719 -3.777344 18.261719 -8.449219 Z M 18.261719 -8.449219 "/></g></g></g><g fill="#000000" fill-opacity="1"><g transform="translate(227.930972, 209.999986)"><g><path d="M 14.757812 0 L 14.757812 -16.894531 L 11.03125 -16.894531 L 11.03125 -6.359375 L 5.21875 -16.894531 L 1.492188 -16.894531 L 1.492188 0 L 5.21875 0 L 5.21875 -10.535156 L 11.03125 0 Z M 14.757812 0 "/></g></g></g><g fill="#000000" fill-opacity="1"><g transform="translate(249.149358, 209.999986)"><g><path d="M 10.683594 -6.460938 L 6.410156 -6.460938 L 8.546875 -12.472656 Z M 16.996094 0 L 10.136719 -16.894531 L 6.980469 -16.894531 L 0.125 0 L 4.125 0 L 5.34375 -3.402344 L 11.777344 -3.402344 L 12.996094 0 Z M 16.996094 0 "/></g></g></g><g fill="#000000" fill-opacity="1"><g transform="translate(271.237278, 209.999986)"><g><path d="M 5.21875 -6.039062 L 5.242188 -6.039062 L 9.269531 0 L 13.988281 0 L 9.144531 -6.210938 C 11.28125 -6.734375 12.996094 -8.621094 12.996094 -11.480469 C 12.996094 -14.683594 10.558594 -16.894531 7.828125 -16.894531 L 1.492188 -16.894531 L 1.492188 0 L 5.21875 0 Z M 7.207031 -13.964844 C 8.300781 -13.964844 9.441406 -13.019531 9.441406 -11.480469 C 9.441406 -9.863281 8.300781 -8.96875 7.207031 -8.96875 L 5.21875 -8.96875 L 5.21875 -13.964844 Z M 7.207031 -13.964844 "/></g></g></g><g fill="#000000" fill-opacity="1"><g transform="translate(289.896754, 209.999986)"><g><path d="M 6.433594 0 L 10.164062 0 L 10.164062 -8.074219 L 16.398438 -16.894531 L 11.953125 -16.894531 L 8.300781 -11.058594 L 4.644531 -16.894531 L 0.199219 -16.894531 L 6.433594 -8.074219 Z M 6.433594 0 "/></g></g></g></svg>